frame:0    pts:206250  pts_time:2.29167
lavfi.scene_score=1.000000
frame:1    pts:442500  pts_time:4.91667
lavfi.scene_score=0.753998
frame:2    pts:540000  pts_time:6
lavfi.scene_score=0.554079
frame:3    pts:615000  pts_time:6.83333
lavfi.scene_score=0.573232
frame:4    pts:618750  pts_time:6.875
lavfi.scene_score=0.293402
frame:5    pts:682500  pts_time:7.58333
lavfi.scene_score=0.634246
frame:6    pts:757500  pts_time:8.41667
lavfi.scene_score=0.702633
frame:7    pts:907500  pts_time:10.0833
lavfi.scene_score=0.975171
frame:8    pts:1005000 pts_time:11.1667
lavfi.scene_score=0.281780
frame:9    pts:1061250 pts_time:11.7917
lavfi.scene_score=0.579534
frame:10   pts:1098750 pts_time:12.2083
lavfi.scene_score=0.764946
frame:11   pts:1125000 pts_time:12.5
lavfi.scene_score=0.251927
frame:12   pts:1151250 pts_time:12.7917
lavfi.scene_score=0.427020
frame:13   pts:1181250 pts_time:13.125
lavfi.scene_score=0.539056
frame:14   pts:1211250 pts_time:13.4583
lavfi.scene_score=0.673985
frame:15   pts:1282500 pts_time:14.25
lavfi.scene_score=0.527252
frame:16   pts:1380000 pts_time:15.3333
lavfi.scene_score=0.554911
frame:17   pts:1503750 pts_time:16.7083
lavfi.scene_score=0.559753
frame:18   pts:1537500 pts_time:17.0833
lavfi.scene_score=0.355577
frame:19   pts:1597500 pts_time:17.75
lavfi.scene_score=0.698191
frame:20   pts:1695000 pts_time:18.8333
lavfi.scene_score=0.795768
frame:21   pts:1773750 pts_time:19.7083
lavfi.scene_score=0.623827
frame:22   pts:1777500 pts_time:19.75
lavfi.scene_score=0.262481
frame:23   pts:1848750 pts_time:20.5417
lavfi.scene_score=0.587501
frame:24   pts:1931250 pts_time:21.4583
lavfi.scene_score=0.669390
frame:25   pts:2047500 pts_time:22.75
lavfi.scene_score=0.709198
frame:26   pts:2122500 pts_time:23.5833
lavfi.scene_score=0.257680
frame:27   pts:2171250 pts_time:24.125
lavfi.scene_score=0.442985
frame:28   pts:2347500 pts_time:26.0833
lavfi.scene_score=0.696821
frame:29   pts:2392500 pts_time:26.5833
lavfi.scene_score=0.601594
frame:30   pts:2418750 pts_time:26.875
lavfi.scene_score=1.000000
frame:31   pts:2445000 pts_time:27.1667
lavfi.scene_score=1.000000
frame:32   pts:2467500 pts_time:27.4167
lavfi.scene_score=0.651273
frame:33   pts:2493750 pts_time:27.7083
lavfi.scene_score=0.327886
frame:34   pts:2868750 pts_time:31.875
lavfi.scene_score=0.481036
frame:35   pts:3150000 pts_time:35
lavfi.scene_score=0.570571
frame:36   pts:3330000 pts_time:37
lavfi.scene_score=0.486994
frame:37   pts:3442500 pts_time:38.25
lavfi.scene_score=0.623812
frame:38   pts:3543750 pts_time:39.375
lavfi.scene_score=0.670004
frame:39   pts:3611250 pts_time:40.125
lavfi.scene_score=0.543485
frame:40   pts:3682500 pts_time:40.9167
lavfi.scene_score=0.604515
frame:41   pts:3765000 pts_time:41.8333
lavfi.scene_score=0.618114
frame:42   pts:3813750 pts_time:42.375
lavfi.scene_score=0.462069
frame:43   pts:3881250 pts_time:43.125
lavfi.scene_score=0.489636
frame:44   pts:3941250 pts_time:43.7917
lavfi.scene_score=0.437821
frame:45   pts:4020000 pts_time:44.6667
lavfi.scene_score=0.499555
frame:46   pts:4076250 pts_time:45.2917
lavfi.scene_score=0.518993
frame:47   pts:4143750 pts_time:46.0417
lavfi.scene_score=0.587960
frame:48   pts:4211250 pts_time:46.7917
lavfi.scene_score=0.616100
frame:49   pts:4458750 pts_time:49.5417
lavfi.scene_score=0.782145
frame:50   pts:4537500 pts_time:50.4167
lavfi.scene_score=0.604486
frame:51   pts:4616250 pts_time:51.2917
lavfi.scene_score=0.725265
frame:52   pts:4683750 pts_time:52.0417
lavfi.scene_score=0.413073
frame:53   pts:4755000 pts_time:52.8333
lavfi.scene_score=0.439020
frame:54   pts:4815000 pts_time:53.5
lavfi.scene_score=0.560832
frame:55   pts:4893750 pts_time:54.375
lavfi.scene_score=0.410065
frame:56   pts:4976250 pts_time:55.2917
lavfi.scene_score=0.438754
frame:57   pts:5036250 pts_time:55.9583
lavfi.scene_score=0.652349
frame:58   pts:5103750 pts_time:56.7083
lavfi.scene_score=0.524290
frame:59   pts:5182500 pts_time:57.5833
lavfi.scene_score=0.768475
frame:60   pts:5231250 pts_time:58.125
lavfi.scene_score=0.700150
frame:61   pts:5295000 pts_time:58.8333
lavfi.scene_score=0.579030
frame:62   pts:5328750 pts_time:59.2083
lavfi.scene_score=0.361394
frame:63   pts:5392500 pts_time:59.9167
lavfi.scene_score=0.513167
frame:64   pts:5636250 pts_time:62.625
lavfi.scene_score=0.557190
frame:65   pts:5688750 pts_time:63.2083
lavfi.scene_score=0.627448
frame:66   pts:5722500 pts_time:63.5833
lavfi.scene_score=0.634166
frame:67   pts:5771250 pts_time:64.125
lavfi.scene_score=0.437996
frame:68   pts:5812500 pts_time:64.5833
lavfi.scene_score=1.000000
frame:69   pts:6206250 pts_time:68.9583
lavfi.scene_score=0.454049
frame:70   pts:6266250 pts_time:69.625
lavfi.scene_score=0.535986
frame:71   pts:6322500 pts_time:70.25
lavfi.scene_score=0.503993
frame:72   pts:6371250 pts_time:70.7917
lavfi.scene_score=0.578838
frame:73   pts:6420000 pts_time:71.3333
lavfi.scene_score=0.489341
frame:74   pts:6465000 pts_time:71.8333
lavfi.scene_score=0.492109
frame:75   pts:6510000 pts_time:72.3333
lavfi.scene_score=0.450702
frame:76   pts:6547500 pts_time:72.75
lavfi.scene_score=0.347250
frame:77   pts:6581250 pts_time:73.125
lavfi.scene_score=0.460216
frame:78   pts:6615000 pts_time:73.5
lavfi.scene_score=0.640271
frame:79   pts:6645000 pts_time:73.8333
lavfi.scene_score=0.310104
frame:80   pts:6656250 pts_time:73.9583
lavfi.scene_score=0.779500
frame:81   pts:6667500 pts_time:74.0833
lavfi.scene_score=0.768765
frame:82   pts:6678750 pts_time:74.2083
lavfi.scene_score=0.680326
frame:83   pts:6693750 pts_time:74.375
lavfi.scene_score=0.488736
frame:84   pts:6750000 pts_time:75
lavfi.scene_score=0.391552
frame:85   pts:6986250 pts_time:77.625
lavfi.scene_score=0.721196
frame:86   pts:7005000 pts_time:77.8333
lavfi.scene_score=0.571119
frame:87   pts:7027500 pts_time:78.0833
lavfi.scene_score=0.329144
frame:88   pts:7038750 pts_time:78.2083
lavfi.scene_score=0.260523
frame:89   pts:7098750 pts_time:78.875
lavfi.scene_score=0.314580
frame:90   pts:7106250 pts_time:78.9583
lavfi.scene_score=0.614985
frame:91   pts:7132500 pts_time:79.25
lavfi.scene_score=0.651938
frame:92   pts:7155000 pts_time:79.5
lavfi.scene_score=0.532306
frame:93   pts:7177500 pts_time:79.75
lavfi.scene_score=0.509886
frame:94   pts:7200000 pts_time:80
lavfi.scene_score=0.587680
frame:95   pts:7218750 pts_time:80.2083
lavfi.scene_score=0.644128
frame:96   pts:7226250 pts_time:80.2917
lavfi.scene_score=0.659625
frame:97   pts:7316250 pts_time:81.2917
lavfi.scene_score=0.511320
frame:98   pts:7350000 pts_time:81.6667
lavfi.scene_score=0.307426
frame:99   pts:7365000 pts_time:81.8333
lavfi.scene_score=0.392268
frame:100  pts:7372500 pts_time:81.9167
lavfi.scene_score=0.515783
frame:101  pts:7432500 pts_time:82.5833
lavfi.scene_score=0.612842
frame:102  pts:7500000 pts_time:83.3333
lavfi.scene_score=0.497879
frame:103  pts:7548750 pts_time:83.875
lavfi.scene_score=0.442625
frame:104  pts:7552500 pts_time:83.9167
lavfi.scene_score=0.268851
frame:105  pts:7575000 pts_time:84.1667
lavfi.scene_score=0.266782
frame:106  pts:7620000 pts_time:84.6667
lavfi.scene_score=0.296190
frame:107  pts:7680000 pts_time:85.3333
lavfi.scene_score=0.508267
frame:108  pts:7747500 pts_time:86.0833
lavfi.scene_score=0.467173
frame:109  pts:7773750 pts_time:86.375
lavfi.scene_score=0.251529
frame:110  pts:7871250 pts_time:87.4583
lavfi.scene_score=0.636940
frame:111  pts:7983750 pts_time:88.7083
lavfi.scene_score=0.718377
frame:112  pts:8070000 pts_time:89.6667
lavfi.scene_score=0.576415
frame:113  pts:8073750 pts_time:89.7083
lavfi.scene_score=0.258759
frame:114  pts:8160000 pts_time:90.6667
lavfi.scene_score=0.274269
frame:115  pts:8208750 pts_time:91.2083
lavfi.scene_score=0.492348
frame:116  pts:8235000 pts_time:91.5
lavfi.scene_score=0.390802
frame:117  pts:8298750 pts_time:92.2083
lavfi.scene_score=0.906758
frame:118  pts:8415000 pts_time:93.5
lavfi.scene_score=0.660693
frame:119  pts:8475000 pts_time:94.1667
lavfi.scene_score=0.698471
frame:120  pts:8531250 pts_time:94.7917
lavfi.scene_score=0.849864
frame:121  pts:8595000 pts_time:95.5
lavfi.scene_score=0.577061
frame:122  pts:8658750 pts_time:96.2083
lavfi.scene_score=0.592986
frame:123  pts:8696250 pts_time:96.625
lavfi.scene_score=0.544466
frame:124  pts:8733750 pts_time:97.0417
lavfi.scene_score=0.422404
frame:125  pts:8778750 pts_time:97.5417
lavfi.scene_score=0.805821
frame:126  pts:8835000 pts_time:98.1667
lavfi.scene_score=0.338961
frame:127  pts:8887500 pts_time:98.75
lavfi.scene_score=0.615419
frame:128  pts:8921250 pts_time:99.125
lavfi.scene_score=1.000000
frame:129  pts:8981250 pts_time:99.7917
lavfi.scene_score=0.362668
frame:130  pts:9093750 pts_time:101.042
lavfi.scene_score=0.504422
frame:131  pts:9176250 pts_time:101.958
lavfi.scene_score=0.435503
frame:132  pts:9262500 pts_time:102.917
lavfi.scene_score=0.415196
frame:133  pts:9326250 pts_time:103.625
lavfi.scene_score=1.000000
frame:134  pts:9330000 pts_time:103.667
lavfi.scene_score=0.493045
frame:135  pts:9791250 pts_time:108.792
lavfi.scene_score=0.951911
frame:136  pts:10023750 pts_time:111.375
lavfi.scene_score=0.969975
frame:137  pts:10173750 pts_time:113.042
lavfi.scene_score=1.000000
frame:138  pts:10286250 pts_time:114.292
lavfi.scene_score=0.972541
frame:139  pts:10541250 pts_time:117.125
lavfi.scene_score=0.937385
frame:140  pts:10728750 pts_time:119.208
lavfi.scene_score=0.847176
